<svg width="74" height="48" viewBox="0 0 74 48" fill="none" xmlns="http://www.w3.org/2000/svg">
<path d="M3.3418 44.4311V3.56934H7.82728L32.6443 36.4576V13.6029L37.4053 18.0892V44.4285H32.6443L8.12369 11.8708V44.4311H3.3418Z" fill="white"/>
<path d="M66.49 7.37675C63.7122 4.83762 60.2576 3.56934 56.1288 3.56934H32.6443L37.4052 8.10441H55.5308C58.4686 8.10441 60.9291 8.93968 62.9174 10.6077C64.9004 12.2756 65.892 14.3869 65.892 16.9465C65.892 19.5061 64.8978 21.6507 62.9174 23.3725C60.9317 25.0994 58.4686 25.9603 55.5308 25.9603H42.793V44.426H47.5539V30.5005H55.5308C59.7356 30.5005 63.3135 29.181 66.2487 26.5419C69.1866 23.9054 70.6555 20.7052 70.6555 16.9439C70.6555 13.1058 69.2653 9.91843 66.4874 7.37418L66.49 7.37675Z" fill="white"/>
</svg>
