<svg width="27" height="27" viewBox="0 0 27 27" fill="none" xmlns="http://www.w3.org/2000/svg">
<path fill-rule="evenodd" clip-rule="evenodd" d="M1.16666 25.8334C0.564602 25.2313 0.564603 24.2552 1.16666 23.6531L23.6531 1.16669C24.2551 0.564634 25.2313 0.564633 25.8333 1.16669C26.4354 1.76875 26.4354 2.74488 25.8333 3.34694L3.34691 25.8334C2.74485 26.4354 1.76872 26.4354 1.16666 25.8334Z" fill="#0E3975"/>
<path fill-rule="evenodd" clip-rule="evenodd" d="M25.8333 25.8334C26.4354 25.2313 26.4354 24.2552 25.8333 23.6531L3.34692 1.16669C2.74486 0.564634 1.76873 0.564633 1.16667 1.16669C0.564613 1.76875 0.564613 2.74488 1.16667 3.34694L23.6531 25.8334C24.2552 26.4354 25.2313 26.4354 25.8333 25.8334Z" fill="#0E3975"/>
</svg>
