<svg width="32" height="33" viewBox="0 0 32 33" fill="none" xmlns="http://www.w3.org/2000/svg">
<path fill-rule="evenodd" clip-rule="evenodd" d="M17.1175 5.27801L19.649 12.0487L26.8559 12.3704C27.3581 12.3934 27.7842 12.7202 27.9394 13.1965H27.9404C28.0957 13.6769 27.9415 14.1897 27.5477 14.504L21.9055 19.0096L23.8275 25.9798C23.9598 26.4613 23.7817 26.9824 23.3775 27.2665L23.3796 27.2686C22.9774 27.561 22.4357 27.5735 22.019 27.2978L15.9997 23.3114L9.98139 27.2978C9.06254 27.9067 7.87908 27.0451 8.1718 25.9808L10.0939 19.0107L4.45166 14.5032C3.8318 14.0082 3.86098 13.0818 4.47145 12.615L4.47041 12.6129C4.66002 12.4677 4.89128 12.3821 5.14339 12.3706L12.3503 12.0489L14.8819 5.2782C15.2704 4.23904 16.7299 4.24197 17.1175 5.27801ZM18.3405 13.1027L15.9997 6.84155L13.6713 13.0692C13.5723 13.3784 13.2889 13.6081 12.9462 13.6228L6.2849 13.9194L11.5001 18.0854V18.0865C11.7429 18.2797 11.8606 18.6066 11.772 18.9262L9.99579 25.3701L15.5473 21.6928C15.8078 21.5132 16.161 21.4996 16.4412 21.6845L22.0053 25.369L20.2374 18.9649C20.1353 18.6557 20.229 18.3006 20.4989 18.0865L25.7141 13.9205L19.0528 13.6238V13.6228C18.7424 13.6092 18.4559 13.4129 18.3403 13.1027L18.3405 13.1027Z" fill="#C0C2CB"/>
</svg>
